# Made in Blockbench 5.1.4
mtllib magehand.mtl

o mesh
v 0.21875 0.625 0.171875
v 0.21875 0.625 -0.203125
v 0.21875 0.4375 0.171875
v 0.21875 0.4375 -0.203125
v -0.21875 0.625 0.171875
v -0.21875 0.625 -0.203125
v -0.21875 0.4375 0.171875
v -0.21875 0.4375 -0.203125
vt 0.59375 0.5
vt 0.40625 0.5
vt 0.40625 0.40625
vt 0.59375 0.40625
vt 0.1875 0.40625
vt 0.1875 0.5
vt 0 0.5
vt 0 0.40625
vt 0 0.5
vt 0.21875 0.5
vt 0.21875 0.6875
vt 0 0.6875
vt 0.4375 0.5
vt 0.4375 0.6875
vt 0.21875 0.6875
vt 0.21875 0.5
vt 0.40625 0.40625
vt 0.40625 0.5
vt 0.1875 0.5
vt 0.1875 0.40625
vt 0.8125 0.5
vt 0.59375 0.5
vt 0.59375 0.40625
vt 0.8125 0.40625
vn 1 0 0
vn -1 0 0
vn 0 1 0
vn 0 -1 0
vn 0 0 1
vn 0 0 -1
usemtl m_57b93e63-9d9d-7620-3352-2911a2561af0
f 2/1/1 1/2/1 3/3/1 4/4/1
f 7/5/2 5/6/2 6/7/2 8/8/2
f 5/9/3 1/10/3 2/11/3 6/12/3
f 4/13/4 3/14/4 7/15/4 8/16/4
f 3/17/5 1/18/5 5/19/5 7/20/5
f 6/21/6 2/22/6 4/23/6 8/24/6
o mesh
v -0.1954938125622012 0.9352513090088369 -0.26825714256785993
v -0.26235566555844353 0.8368912214472846 -0.335119003483053
v -0.07710716652748126 0.5310540074826635 -0.14987051545309849
v -0.15876735027806357 0.4832185826118828 -0.2315307047576367
v -0.2838821617417764 0.9352513039745021 -0.17986879645079842
v -0.35074401473801875 0.8368912164129496 -0.24673065736599148
v -0.16549551570705645 0.5310540024483287 -0.06148216933603695
v -0.24715569945763877 0.48321857757754794 -0.14314235864057517
vt 0.25 0.9375
vt 0.1875 0.9375
vt 0.1875 0.71875
vt 0.25 0.71875
vt 0.25 0.71875
vt 0.25 0.9375
vt 0.1875 0.9375
vt 0.1875 0.71875
vt 0.375 0.78125
vt 0.375 1
vt 0.3125 1
vt 0.3125 0.78125
vt 0.3125 1
vt 0.25 1
vt 0.25 0.8125
vt 0.3125 0.8125
vt 0.1875 0.9375
vt 0.25 0.9375
vt 0.25 1
vt 0.1875 1
vn 0.7071067934366015 4.0274678730911624e-8 -0.7071067689364923
vn -0.7071067934366015 -4.0274678730911624e-8 0.7071067689364923
vn 0.6532814700046587 0.3826833989662461 0.6532815144363059
vn -0.6532814700046587 -0.3826833989662461 -0.6532815144363059
vn -0.5097579036520689 0.6930323091782234 -0.5097578818413185
usemtl m_57b93e63-9d9d-7620-3352-2911a2561af0
f 10/25/7 9/26/7 11/27/7 12/28/7
f 15/29/8 13/30/8 14/31/8 16/32/8
f 11/33/9 9/34/9 13/35/9 15/36/9
f 14/37/10 10/38/10 12/39/10 16/40/10
f 13/41/11 9/42/11 10/43/11 14/44/11
o mesh
v 0.14115824494710555 0.5985075229139507 -0.07769782443998079
v 0.2504271777365983 0.5543133529914788 -0.11931723904313198
v 0.09074806570743979 0.5802017029645328 -0.1906080134620715
v 0.2000169984969325 0.5360075330420608 -0.2322274280652227
v 0.24263251461499138 0.9449623550459163 -0.17917206692437032
v 0.3180766908485222 0.7852832410794558 -0.186966734032725
v 0.19222233537532563 0.9266565350964984 -0.29208225594646103
v 0.2676665116088564 0.7669774211300379 -0.2998769230548157
vt 0.625 0.9375
vt 0.5625 0.9375
vt 0.5625 0.75
vt 0.625 0.75
vt 0.625 0.75
vt 0.625 0.9375
vt 0.5625 0.9375
vt 0.5625 0.75
vt 0.5625 0.9375
vt 0.625 0.9375
vt 0.625 1
vt 0.5625 1
vt 0.75 0.8125
vt 0.75 1
vt 0.6875 1
vt 0.6875 0.8125
vt 0.6875 1
vt 0.625 1
vt 0.625 0.8125
vt 0.6875 0.8125
vn 0.40328143391732607 0.14644655959534372 0.903281512176726
vn -0.40328143391732607 -0.14644655959534372 -0.903281512176726
vn 0.8094601446493779 0.4032815185389026 -0.4267766289631676
vn -0.8741514623159418 0.3535533593797757 0.3329553168252096
vn 0.8741514623159418 -0.3535533593797757 -0.3329553168252096
usemtl m_57b93e63-9d9d-7620-3352-2911a2561af0
f 22/45/12 21/46/12 17/47/12 18/48/12
f 19/49/13 23/50/13 24/51/13 20/52/13
f 23/53/14 21/54/14 22/55/14 24/56/14
f 17/57/15 21/58/15 23/59/15 19/60/15
f 24/61/16 22/62/16 18/63/16 20/64/16
o mesh
v -0.275969530047908 0.788516362259662 0.078125
v -0.275969530047908 0.788516362259662 -0.046875
v -0.1563809574338174 0.499804008349885 0.078125
v -0.1563809574338174 0.499804008349885 -0.046875
v -0.36155732845829613 0.6685028447365816 0.078125
v -0.36155732845829613 0.6685028447365816 -0.046875
v -0.2718658989977283 0.4519685793042488 0.078125
v -0.2718658989977283 0.4519685793042488 -0.046875
vt 0.1875 1
vt 0.125 1
vt 0.125 0.84375
vt 0.1875 0.84375
vt 0.125 0.84375
vt 0.125 1
vt 0.0625 1
vt 0.0625 0.84375
vt 0 0.9375
vt 0.0625 0.9375
vt 0.0625 1
vt 0 1
vt 0.0625 0.78125
vt 0.0625 0.9375
vt 0 0.9375
vt 0 0.78125
vt 0.0625 0.9375
vt 0 0.9375
vt 0 0.78125
vt 0.0625 0.78125
vn 0.9238795325112867 0.3826834323650897 0
vn -0.9238795325112867 -0.3826834323650897 0
vn -0.8141700745380573 0.5806264631643085 0
vn 0 0 1
vn 0 0 -1
usemtl m_57b93e63-9d9d-7620-3352-2911a2561af0
f 26/65/17 25/66/17 27/67/17 28/68/17
f 31/69/18 29/70/18 30/71/18 32/72/18
f 29/73/19 25/74/19 26/75/19 30/76/19
f 27/77/20 25/78/20 29/79/20 31/80/20
f 30/81/21 26/82/21 28/83/21 32/84/21
o mesh
v 0.046875 0.9111375976506397 -0.272303387309317
v 0.046875 0.8151836354282767 -0.3678569798299278
v 0.046875 0.6224252437408627 -0.15271481469522646
v 0.046875 0.5745898146952264 -0.26819975625913733
v -0.078125 0.9111375976506397 -0.272303387309317
v -0.078125 0.8151836354282767 -0.3678569798299278
v -0.078125 0.6224252437408627 -0.15271481469522646
v -0.078125 0.5745898146952264 -0.26819975625913733
vt 0.4375 0.9375
vt 0.375 0.9375
vt 0.375 0.75
vt 0.4375 0.75
vt 0.4375 0.75
vt 0.4375 0.9375
vt 0.375 0.9375
vt 0.375 0.75
vt 0.375 0.9375
vt 0.4375 0.9375
vt 0.4375 1
vt 0.375 1
vt 0.5625 0.8125
vt 0.5625 1
vt 0.5 1
vt 0.5 0.8125
vt 0.5 1
vt 0.4375 1
vt 0.4375 0.8125
vt 0.5 0.8125
vn 1 0 0
vn -1 0 0
vn 0 0.7056269469129985 -0.708583524921544
vn 0 0.3826834323650897 0.9238795325112867
vn 0 -0.3826834323650897 -0.9238795325112867
usemtl m_57b93e63-9d9d-7620-3352-2911a2561af0
f 34/85/22 33/86/22 35/87/22 36/88/22
f 39/89/23 37/90/23 38/91/23 40/92/23
f 37/93/24 33/94/24 34/95/24 38/96/24
f 35/97/25 33/98/25 37/99/25 39/100/25
f 38/101/26 34/102/26 36/103/26 40/104/26
o mesh
v 0.37949561435040974 0.7743096978230481 0.125
v 0.37949561435040974 0.7743096978230481 0
v 0.28382475625913733 0.5433398146952264 0.125
v 0.28382475625913733 0.5433398146952264 0
v 0.287928387309317 0.8798875976506397 0.125
v 0.287928387309317 0.8798875976506397 0
v 0.16833981469522646 0.5911752437408627 0.125
v 0.16833981469522646 0.5911752437408627 0
vt 0.875 1
vt 0.8125 1
vt 0.8125 0.84375
vt 0.875 0.84375
vt 0.9375 0.84375
vt 0.9375 1
vt 0.875 1
vt 0.875 0.84375
vt 0.75 0.9375
vt 0.8125 0.9375
vt 0.8125 1
vt 0.75 1
vt 0.8125 0.78125
vt 0.8125 0.9375
vt 0.75 0.9375
vt 0.75 0.78125
vt 0.8125 0.9375
vt 0.75 0.9375
vt 0.75 0.78125
vt 0.8125 0.78125
vn 0.9238795325112867 -0.3826834323650897 0
vn -0.9238795325112867 0.3826834323650897 0
vn 0.7554539549957063 0.6552017413601289 0
vn 0 0 1
vn 0 0 -1
usemtl m_57b93e63-9d9d-7620-3352-2911a2561af0
f 42/105/27 41/106/27 43/107/27 44/108/27
f 47/109/28 45/110/28 46/111/28 48/112/28
f 45/113/29 41/114/29 42/115/29 46/116/29
f 43/117/30 41/118/30 45/119/30 47/120/30
f 46/121/31 42/122/31 44/123/31 48/124/31
o mesh
v 0.171875 0.4375 0.140625
v 0.171875 0.4375 -0.203125
v 0.171875 -0.1875 0.140625
v 0.171875 -0.1875 -0.203125
v -0.171875 0.4375 0.140625
v -0.171875 0.4375 -0.203125
v -0.171875 -0.1875 0.140625
v -0.171875 -0.1875 -0.203125
vt 0.46875 0.40625
vt 0.3125 0.40625
vt 0.3125 0.09375
vt 0.46875 0.09375
vt 0.15625 0.09375
vt 0.15625 0.40625
vt 0 0.40625
vt 0 0.09375
vt 0.3125 0.09375
vt 0.3125 0.40625
vt 0.15625 0.40625
vt 0.15625 0.09375
vt 0.625 0.40625
vt 0.46875 0.40625
vt 0.46875 0.09375
vt 0.625 0.09375
vn 1 0 0
vn -1 0 0
vn 0 0 1
vn 0 0 -1
usemtl m_57b93e63-9d9d-7620-3352-2911a2561af0
f 50/125/32 49/126/32 51/127/32 52/128/32
f 55/129/33 53/130/33 54/131/33 56/132/33
f 51/133/34 49/134/34 53/135/34 55/136/34
f 54/137/35 50/138/35 52/139/35 56/140/35