# Made in Blockbench 5.1.4
mtllib wand_parts.mtl

o short_core
v 0.08838834764831843 0.75 -6.938893903907228e-18
v -6.938893903907228e-18 0.75 -0.08838834764831843
v 0.08838834764831843 0 -6.938893903907228e-18
v -6.938893903907228e-18 0 -0.08838834764831843
v 6.938893903907228e-18 0.75 0.08838834764831843
v -0.08838834764831843 0.75 6.938893903907228e-18
v 6.938893903907228e-18 0 0.08838834764831843
v -0.08838834764831843 0 6.938893903907228e-18
vt 0.03125 0.890625
vt 0.03125 0.984375
vt 0 0.984375
vt 0 0.890625
vt 0.03125 0.890625
vt 0.03125 0.984375
vt 0 0.984375
vt 0 0.890625
vt 0.03125 0.984375
vt 0.03125 1
vt 0 1
vt 0 0.984375
vt 0 0.875
vt 0 0.890625
vt 0.03125 0.890625
vt 0.03125 0.875
vt 0.03125 0.890625
vt 0.03125 0.984375
vt 0 0.984375
vt 0 0.890625
vt 0.03125 0.890625
vt 0.03125 0.984375
vt 0 0.984375
vt 0 0.890625
vn 0.7071067811865475 0 -0.7071067811865476
vn -0.7071067811865475 0 0.7071067811865476
vn 0 1 0
vn 0 -1 0
vn 0.7071067811865476 0 0.7071067811865475
vn -0.7071067811865476 0 -0.7071067811865475
usemtl m_3abd2b0f-f5e2-2783-9d93-0e884166a4af
f 4/1/1 2/2/1 1/3/1 3/4/1
f 7/5/2 5/6/2 6/7/2 8/8/2
f 1/9/3 2/10/3 6/11/3 5/12/3
f 4/13/4 3/14/4 7/15/4 8/16/4
f 3/17/5 1/18/5 5/19/5 7/20/5
f 8/21/6 6/22/6 2/23/6 4/24/6
o short_core_simple_base
v 0.11048543456039805 0.765625 -6.938893903907228e-18
v -6.938893903907228e-18 0.765625 -0.11048543456039805
v 0.11048543456039805 -0.015625 -6.938893903907228e-18
v -6.938893903907228e-18 -0.015625 -0.11048543456039805
v 6.938893903907228e-18 0.765625 0.11048543456039805
v -0.11048543456039805 0.765625 6.938893903907228e-18
v 6.938893903907228e-18 -0.015625 0.11048543456039805
v -0.11048543456039805 -0.015625 6.938893903907228e-18
vt 0.078125 0.8828125
vt 0.078125 0.9765625
vt 0.03125 0.9765625
vt 0.03125 0.8828125
vt 0.078125 0.8828125
vt 0.078125 0.9765625
vt 0.03125 0.9765625
vt 0.03125 0.8828125
vt 0.078125 0.9765625
vt 0.078125 1
vt 0.03125 1
vt 0.03125 0.9765625
vt 0.03125 0.859375
vt 0.03125 0.8828125
vt 0.078125 0.8828125
vt 0.078125 0.859375
vt 0.078125 0.8828125
vt 0.078125 0.9765625
vt 0.03125 0.9765625
vt 0.03125 0.8828125
vt 0.078125 0.8828125
vt 0.078125 0.9765625
vt 0.03125 0.9765625
vt 0.03125 0.8828125
vn 0.7071067811865475 0 -0.7071067811865476
vn -0.7071067811865475 0 0.7071067811865476
vn 0 1 0
vn 0 -1 0
vn 0.7071067811865476 0 0.7071067811865475
vn -0.7071067811865476 0 -0.7071067811865475
usemtl m_3abd2b0f-f5e2-2783-9d93-0e884166a4af
f 12/25/7 10/26/7 9/27/7 11/28/7
f 15/29/8 13/30/8 14/31/8 16/32/8
f 9/33/9 10/34/9 14/35/9 13/36/9
f 12/37/10 11/38/10 15/39/10 16/40/10
f 11/41/11 9/42/11 13/43/11 15/44/11
f 16/45/12 14/46/12 10/47/12 12/48/12
o short_core_simple_bauble
v 0.11048543456039805 0.765625 -6.938893903907228e-18
v -6.938893903907228e-18 0.765625 -0.11048543456039805
v 0.11048543456039805 -0.015625 -6.938893903907228e-18
v -6.938893903907228e-18 -0.015625 -0.11048543456039805
v 6.938893903907228e-18 0.765625 0.11048543456039805
v -0.11048543456039805 0.765625 6.938893903907228e-18
v 6.938893903907228e-18 -0.015625 0.11048543456039805
v -0.11048543456039805 -0.015625 6.938893903907228e-18
vt 0.125 0.8828125
vt 0.125 0.9765625
vt 0.078125 0.9765625
vt 0.078125 0.8828125
vt 0.125 0.8828125
vt 0.125 0.9765625
vt 0.078125 0.9765625
vt 0.078125 0.8828125
vt 0.125 0.9765625
vt 0.125 1
vt 0.078125 1
vt 0.078125 0.9765625
vt 0.078125 0.859375
vt 0.078125 0.8828125
vt 0.125 0.8828125
vt 0.125 0.859375
vt 0.125 0.8828125
vt 0.125 0.9765625
vt 0.078125 0.9765625
vt 0.078125 0.8828125
vt 0.125 0.8828125
vt 0.125 0.9765625
vt 0.078125 0.9765625
vt 0.078125 0.8828125
vn 0.7071067811865475 0 -0.7071067811865476
vn -0.7071067811865475 0 0.7071067811865476
vn 0 1 0
vn 0 -1 0
vn 0.7071067811865476 0 0.7071067811865475
vn -0.7071067811865476 0 -0.7071067811865475
usemtl m_3abd2b0f-f5e2-2783-9d93-0e884166a4af
f 20/49/13 18/50/13 17/51/13 19/52/13
f 23/53/14 21/54/14 22/55/14 24/56/14
f 17/57/15 18/58/15 22/59/15 21/60/15
f 20/61/16 19/62/16 23/63/16 24/64/16
f 19/65/17 17/66/17 21/67/17 23/68/17
f 24/69/18 22/70/18 18/71/18 20/72/18
o short_core_simple_ornament
v 0.11048543456039805 0.765625 -6.938893903907228e-18
v -6.938893903907228e-18 0.765625 -0.11048543456039805
v 0.11048543456039805 -0.015625 -6.938893903907228e-18
v -6.938893903907228e-18 -0.015625 -0.11048543456039805
v 6.938893903907228e-18 0.765625 0.11048543456039805
v -0.11048543456039805 0.765625 6.938893903907228e-18
v 6.938893903907228e-18 -0.015625 0.11048543456039805
v -0.11048543456039805 -0.015625 6.938893903907228e-18
vt 0.171875 0.8828125
vt 0.171875 0.9765625
vt 0.125 0.9765625
vt 0.125 0.8828125
vt 0.171875 0.8828125
vt 0.171875 0.9765625
vt 0.125 0.9765625
vt 0.125 0.8828125
vt 0.171875 0.9765625
vt 0.171875 1
vt 0.125 1
vt 0.125 0.9765625
vt 0.125 0.859375
vt 0.125 0.8828125
vt 0.171875 0.8828125
vt 0.171875 0.859375
vt 0.171875 0.8828125
vt 0.171875 0.9765625
vt 0.125 0.9765625
vt 0.125 0.8828125
vt 0.171875 0.8828125
vt 0.171875 0.9765625
vt 0.125 0.9765625
vt 0.125 0.8828125
vn 0.7071067811865475 0 -0.7071067811865476
vn -0.7071067811865475 0 0.7071067811865476
vn 0 1 0
vn 0 -1 0
vn 0.7071067811865476 0 0.7071067811865475
vn -0.7071067811865476 0 -0.7071067811865475
usemtl m_3abd2b0f-f5e2-2783-9d93-0e884166a4af
f 28/73/19 26/74/19 25/75/19 27/76/19
f 31/77/20 29/78/20 30/79/20 32/80/20
f 25/81/21 26/82/21 30/83/21 29/84/21
f 28/85/22 27/86/22 31/87/22 32/88/22
f 27/89/23 25/90/23 29/91/23 31/92/23
f 32/93/24 30/94/24 26/95/24 28/96/24
o balanced_core
v -0.9116116523516815 1 -6.938893903907228e-18
v -1 1 -0.08838834764831843
v -0.9116116523516815 -0.125 -6.938893903907228e-18
v -1 -0.125 -0.08838834764831843
v -1 1 0.08838834764831843
v -1.0883883476483185 1 6.938893903907228e-18
v -1 -0.125 0.08838834764831843
v -1.0883883476483185 -0.125 6.938893903907228e-18
vt 0.03125 0.703125
vt 0.03125 0.84375
vt 0 0.84375
vt 0 0.703125
vt 0.03125 0.703125
vt 0.03125 0.84375
vt 0 0.84375
vt 0 0.703125
vt 0.03125 0.84375
vt 0.03125 0.859375
vt 0 0.859375
vt 0 0.84375
vt 0 0.6875
vt 0 0.703125
vt 0.03125 0.703125
vt 0.03125 0.6875
vt 0.03125 0.703125
vt 0.03125 0.84375
vt 0 0.84375
vt 0 0.703125
vt 0.03125 0.703125
vt 0.03125 0.84375
vt 0 0.84375
vt 0 0.703125
vn 0.7071067811865475 0 -0.7071067811865476
vn -0.7071067811865475 0 0.7071067811865476
vn 0 1 0
vn 0 -1 0
vn 0.7071067811865476 0 0.7071067811865475
vn -0.7071067811865476 0 -0.7071067811865475
usemtl m_3abd2b0f-f5e2-2783-9d93-0e884166a4af
f 36/97/25 34/98/25 33/99/25 35/100/25
f 39/101/26 37/102/26 38/103/26 40/104/26
f 33/105/27 34/106/27 38/107/27 37/108/27
f 36/109/28 35/110/28 39/111/28 40/112/28
f 35/113/29 33/114/29 37/115/29 39/116/29
f 40/117/30 38/118/30 34/119/30 36/120/30
o balanced_core_simple_base
v -0.889514565439602 1.015625 -6.938893903907228e-18
v -1 1.015625 -0.11048543456039805
v -0.889514565439602 -0.140625 -6.938893903907228e-18
v -1 -0.140625 -0.11048543456039805
v -1 1.015625 0.11048543456039805
v -1.110485434560398 1.015625 6.938893903907228e-18
v -1 -0.140625 0.11048543456039805
v -1.110485434560398 -0.140625 6.938893903907228e-18
vt 0.078125 0.6953125
vt 0.078125 0.8359375
vt 0.03125 0.8359375
vt 0.03125 0.6953125
vt 0.078125 0.6953125
vt 0.078125 0.8359375
vt 0.03125 0.8359375
vt 0.03125 0.6953125
vt 0.078125 0.8359375
vt 0.078125 0.859375
vt 0.03125 0.859375
vt 0.03125 0.8359375
vt 0.03125 0.671875
vt 0.03125 0.6953125
vt 0.078125 0.6953125
vt 0.078125 0.671875
vt 0.078125 0.6953125
vt 0.078125 0.8359375
vt 0.03125 0.8359375
vt 0.03125 0.6953125
vt 0.078125 0.6953125
vt 0.078125 0.8359375
vt 0.03125 0.8359375
vt 0.03125 0.6953125
vn 0.7071067811865475 0 -0.7071067811865476
vn -0.7071067811865475 0 0.7071067811865476
vn 0 1 0
vn 0 -1 0
vn 0.7071067811865476 0 0.7071067811865475
vn -0.7071067811865476 0 -0.7071067811865475
usemtl m_3abd2b0f-f5e2-2783-9d93-0e884166a4af
f 44/121/31 42/122/31 41/123/31 43/124/31
f 47/125/32 45/126/32 46/127/32 48/128/32
f 41/129/33 42/130/33 46/131/33 45/132/33
f 44/133/34 43/134/34 47/135/34 48/136/34
f 43/137/35 41/138/35 45/139/35 47/140/35
f 48/141/36 46/142/36 42/143/36 44/144/36
o balanced_core_simple_bauble
v -0.889514565439602 1.015625 -6.938893903907228e-18
v -1 1.015625 -0.11048543456039805
v -0.889514565439602 -0.140625 -6.938893903907228e-18
v -1 -0.140625 -0.11048543456039805
v -1 1.015625 0.11048543456039805
v -1.110485434560398 1.015625 6.938893903907228e-18
v -1 -0.140625 0.11048543456039805
v -1.110485434560398 -0.140625 6.938893903907228e-18
vt 0.125 0.6953125
vt 0.125 0.8359375
vt 0.078125 0.8359375
vt 0.078125 0.6953125
vt 0.125 0.6953125
vt 0.125 0.8359375
vt 0.078125 0.8359375
vt 0.078125 0.6953125
vt 0.125 0.8359375
vt 0.125 0.859375
vt 0.078125 0.859375
vt 0.078125 0.8359375
vt 0.078125 0.671875
vt 0.078125 0.6953125
vt 0.125 0.6953125
vt 0.125 0.671875
vt 0.125 0.6953125
vt 0.125 0.8359375
vt 0.078125 0.8359375
vt 0.078125 0.6953125
vt 0.125 0.6953125
vt 0.125 0.8359375
vt 0.078125 0.8359375
vt 0.078125 0.6953125
vn 0.7071067811865475 0 -0.7071067811865476
vn -0.7071067811865475 0 0.7071067811865476
vn 0 1 0
vn 0 -1 0
vn 0.7071067811865476 0 0.7071067811865475
vn -0.7071067811865476 0 -0.7071067811865475
usemtl m_3abd2b0f-f5e2-2783-9d93-0e884166a4af
f 52/145/37 50/146/37 49/147/37 51/148/37
f 55/149/38 53/150/38 54/151/38 56/152/38
f 49/153/39 50/154/39 54/155/39 53/156/39
f 52/157/40 51/158/40 55/159/40 56/160/40
f 51/161/41 49/162/41 53/163/41 55/164/41
f 56/165/42 54/166/42 50/167/42 52/168/42
o balanced_core_simple_ornament
v -0.889514565439602 1.015625 -6.938893903907228e-18
v -1 1.015625 -0.11048543456039805
v -0.889514565439602 -0.140625 -6.938893903907228e-18
v -1 -0.140625 -0.11048543456039805
v -1 1.015625 0.11048543456039805
v -1.110485434560398 1.015625 6.938893903907228e-18
v -1 -0.140625 0.11048543456039805
v -1.110485434560398 -0.140625 6.938893903907228e-18
vt 0.171875 0.6953125
vt 0.171875 0.8359375
vt 0.125 0.8359375
vt 0.125 0.6953125
vt 0.171875 0.6953125
vt 0.171875 0.8359375
vt 0.125 0.8359375
vt 0.125 0.6953125
vt 0.171875 0.8359375
vt 0.171875 0.859375
vt 0.125 0.859375
vt 0.125 0.8359375
vt 0.125 0.671875
vt 0.125 0.6953125
vt 0.171875 0.6953125
vt 0.171875 0.671875
vt 0.171875 0.6953125
vt 0.171875 0.8359375
vt 0.125 0.8359375
vt 0.125 0.6953125
vt 0.171875 0.6953125
vt 0.171875 0.8359375
vt 0.125 0.8359375
vt 0.125 0.6953125
vn 0.7071067811865475 0 -0.7071067811865476
vn -0.7071067811865475 0 0.7071067811865476
vn 0 1 0
vn 0 -1 0
vn 0.7071067811865476 0 0.7071067811865475
vn -0.7071067811865476 0 -0.7071067811865475
usemtl m_3abd2b0f-f5e2-2783-9d93-0e884166a4af
f 60/169/43 58/170/43 57/171/43 59/172/43
f 63/173/44 61/174/44 62/175/44 64/176/44
f 57/177/45 58/178/45 62/179/45 61/180/45
f 60/181/46 59/182/46 63/183/46 64/184/46
f 59/185/47 57/186/47 61/187/47 63/188/47
f 64/189/48 62/190/48 58/191/48 60/192/48
o long_core
v -1.9116116523516815 1.25 -6.938893903907228e-18
v -2 1.25 -0.08838834764831843
v -1.9116116523516815 -0.375 -6.938893903907228e-18
v -2 -0.375 -0.08838834764831843
v -2 1.25 0.08838834764831843
v -2.0883883476483183 1.25 6.938893903907228e-18
v -2 -0.375 0.08838834764831843
v -2.0883883476483183 -0.375 6.938893903907228e-18
vt 0.03125 0.453125
vt 0.03125 0.65625
vt 0 0.65625
vt 0 0.453125
vt 0.03125 0.453125
vt 0.03125 0.65625
vt 0 0.65625
vt 0 0.453125
vt 0.03125 0.65625
vt 0.03125 0.671875
vt 0 0.671875
vt 0 0.65625
vt 0 0.4375
vt 0 0.453125
vt 0.03125 0.453125
vt 0.03125 0.4375
vt 0.03125 0.453125
vt 0.03125 0.65625
vt 0 0.65625
vt 0 0.453125
vt 0.03125 0.453125
vt 0.03125 0.65625
vt 0 0.65625
vt 0 0.453125
vn 0.7071067811865475 0 -0.7071067811865476
vn -0.7071067811865475 0 0.7071067811865476
vn 0 1 0
vn 0 -1 0
vn 0.7071067811865476 0 0.7071067811865475
vn -0.7071067811865476 0 -0.7071067811865475
usemtl m_3abd2b0f-f5e2-2783-9d93-0e884166a4af
f 68/193/49 66/194/49 65/195/49 67/196/49
f 71/197/50 69/198/50 70/199/50 72/200/50
f 65/201/51 66/202/51 70/203/51 69/204/51
f 68/205/52 67/206/52 71/207/52 72/208/52
f 67/209/53 65/210/53 69/211/53 71/212/53
f 72/213/54 70/214/54 66/215/54 68/216/54
o long_core_simple_base
v -1.889514565439602 1.265625 -6.938893903907228e-18
v -2 1.265625 -0.11048543456039805
v -1.889514565439602 -0.390625 -6.938893903907228e-18
v -2 -0.390625 -0.11048543456039805
v -2 1.265625 0.11048543456039805
v -2.110485434560398 1.265625 6.938893903907228e-18
v -2 -0.390625 0.11048543456039805
v -2.110485434560398 -0.390625 6.938893903907228e-18
vt 0.078125 0.4453125
vt 0.078125 0.6484375
vt 0.03125 0.6484375
vt 0.03125 0.4453125
vt 0.078125 0.4453125
vt 0.078125 0.6484375
vt 0.03125 0.6484375
vt 0.03125 0.4453125
vt 0.078125 0.6484375
vt 0.078125 0.671875
vt 0.03125 0.671875
vt 0.03125 0.6484375
vt 0.03125 0.421875
vt 0.03125 0.4453125
vt 0.078125 0.4453125
vt 0.078125 0.421875
vt 0.078125 0.4453125
vt 0.078125 0.6484375
vt 0.03125 0.6484375
vt 0.03125 0.4453125
vt 0.078125 0.4453125
vt 0.078125 0.6484375
vt 0.03125 0.6484375
vt 0.03125 0.4453125
vn 0.7071067811865475 0 -0.7071067811865476
vn -0.7071067811865475 0 0.7071067811865476
vn 0 1 0
vn 0 -1 0
vn 0.7071067811865476 0 0.7071067811865475
vn -0.7071067811865476 0 -0.7071067811865475
usemtl m_3abd2b0f-f5e2-2783-9d93-0e884166a4af
f 76/217/55 74/218/55 73/219/55 75/220/55
f 79/221/56 77/222/56 78/223/56 80/224/56
f 73/225/57 74/226/57 78/227/57 77/228/57
f 76/229/58 75/230/58 79/231/58 80/232/58
f 75/233/59 73/234/59 77/235/59 79/236/59
f 80/237/60 78/238/60 74/239/60 76/240/60
o long_core_simple_bauble
v -1.889514565439602 1.265625 -6.938893903907228e-18
v -2 1.265625 -0.11048543456039805
v -1.889514565439602 -0.390625 -6.938893903907228e-18
v -2 -0.390625 -0.11048543456039805
v -2 1.265625 0.11048543456039805
v -2.110485434560398 1.265625 6.938893903907228e-18
v -2 -0.390625 0.11048543456039805
v -2.110485434560398 -0.390625 6.938893903907228e-18
vt 0.125 0.4453125
vt 0.125 0.6484375
vt 0.078125 0.6484375
vt 0.078125 0.4453125
vt 0.125 0.4453125
vt 0.125 0.6484375
vt 0.078125 0.6484375
vt 0.078125 0.4453125
vt 0.125 0.6484375
vt 0.125 0.671875
vt 0.078125 0.671875
vt 0.078125 0.6484375
vt 0.078125 0.421875
vt 0.078125 0.4453125
vt 0.125 0.4453125
vt 0.125 0.421875
vt 0.125 0.4453125
vt 0.125 0.6484375
vt 0.078125 0.6484375
vt 0.078125 0.4453125
vt 0.125 0.4453125
vt 0.125 0.6484375
vt 0.078125 0.6484375
vt 0.078125 0.4453125
vn 0.7071067811865475 0 -0.7071067811865476
vn -0.7071067811865475 0 0.7071067811865476
vn 0 1 0
vn 0 -1 0
vn 0.7071067811865476 0 0.7071067811865475
vn -0.7071067811865476 0 -0.7071067811865475
usemtl m_3abd2b0f-f5e2-2783-9d93-0e884166a4af
f 84/241/61 82/242/61 81/243/61 83/244/61
f 87/245/62 85/246/62 86/247/62 88/248/62
f 81/249/63 82/250/63 86/251/63 85/252/63
f 84/253/64 83/254/64 87/255/64 88/256/64
f 83/257/65 81/258/65 85/259/65 87/260/65
f 88/261/66 86/262/66 82/263/66 84/264/66
o long_core_simple_ornament
v -1.889514565439602 1.265625 -6.938893903907228e-18
v -2 1.265625 -0.11048543456039805
v -1.889514565439602 -0.390625 -6.938893903907228e-18
v -2 -0.390625 -0.11048543456039805
v -2 1.265625 0.11048543456039805
v -2.110485434560398 1.265625 6.938893903907228e-18
v -2 -0.390625 0.11048543456039805
v -2.110485434560398 -0.390625 6.938893903907228e-18
vt 0.171875 0.4453125
vt 0.171875 0.6484375
vt 0.125 0.6484375
vt 0.125 0.4453125
vt 0.171875 0.4453125
vt 0.171875 0.6484375
vt 0.125 0.6484375
vt 0.125 0.4453125
vt 0.171875 0.6484375
vt 0.171875 0.671875
vt 0.125 0.671875
vt 0.125 0.6484375
vt 0.125 0.421875
vt 0.125 0.4453125
vt 0.171875 0.4453125
vt 0.171875 0.421875
vt 0.171875 0.4453125
vt 0.171875 0.6484375
vt 0.125 0.6484375
vt 0.125 0.4453125
vt 0.171875 0.4453125
vt 0.171875 0.6484375
vt 0.125 0.6484375
vt 0.125 0.4453125
vn 0.7071067811865475 0 -0.7071067811865476
vn -0.7071067811865475 0 0.7071067811865476
vn 0 1 0
vn 0 -1 0
vn 0.7071067811865476 0 0.7071067811865475
vn -0.7071067811865476 0 -0.7071067811865475
usemtl m_3abd2b0f-f5e2-2783-9d93-0e884166a4af
f 92/265/67 90/266/67 89/267/67 91/268/67
f 95/269/68 93/270/68 94/271/68 96/272/68
f 89/273/69 90/274/69 94/275/69 93/276/69
f 92/277/70 91/278/70 95/279/70 96/280/70
f 91/281/71 89/282/71 93/283/71 95/284/71
f 96/285/72 94/286/72 90/287/72 92/288/72
o cap_head
v 0.09375 0.9375 0.09375
v 0.09375 0.9375 -0.09375
v 0.09375 0.75 0.09375
v 0.09375 0.75 -0.09375
v -0.09375 0.9375 -0.09375
v -0.09375 0.9375 0.09375
v -0.09375 0.75 -0.09375
v -0.09375 0.75 0.09375
vt 0.21875 0.9765625
vt 0.265625 0.9765625
vt 0.265625 0.953125
vt 0.21875 0.953125
vt 0.171875 0.9765625
vt 0.21875 0.9765625
vt 0.21875 0.953125
vt 0.171875 0.953125
vt 0.3125 0.9765625
vt 0.359375 0.9765625
vt 0.359375 0.953125
vt 0.3125 0.953125
vt 0.265625 0.9765625
vt 0.3125 0.9765625
vt 0.3125 0.953125
vt 0.265625 0.953125
vt 0.265625 0.9765625
vt 0.21875 0.9765625
vt 0.21875 1
vt 0.265625 1
vt 0.3125 1
vt 0.265625 1
vt 0.265625 0.9765625
vt 0.3125 0.9765625
vn 0 0 -1
vn 1 0 0
vn 0 0 1
vn -1 0 0
vn 0 1 0
vn 0 -1 0
usemtl m_db01bca4-9894-1090-c0ce-2451c7257be7
f 100/292/73 103/291/73 101/290/73 98/289/73
f 99/296/74 100/295/74 98/294/74 97/293/74
f 104/300/75 99/299/75 97/298/75 102/297/75
f 103/304/76 104/303/76 102/302/76 101/301/76
f 102/308/77 97/307/77 98/306/77 101/305/77
f 103/312/78 100/311/78 99/310/78 104/309/78
o cap_head
v 0.109375 0.953125 0.109375
v 0.109375 0.953125 -0.109375
v 0.109375 0.734375 0.109375
v 0.109375 0.734375 -0.109375
v -0.109375 0.953125 -0.109375
v -0.109375 0.953125 0.109375
v -0.109375 0.734375 -0.109375
v -0.109375 0.734375 0.109375
vt 0.21875 0.9296875
vt 0.265625 0.9296875
vt 0.265625 0.90625
vt 0.21875 0.90625
vt 0.171875 0.9296875
vt 0.21875 0.9296875
vt 0.21875 0.90625
vt 0.171875 0.90625
vt 0.3125 0.9296875
vt 0.359375 0.9296875
vt 0.359375 0.90625
vt 0.3125 0.90625
vt 0.265625 0.9296875
vt 0.3125 0.9296875
vt 0.3125 0.90625
vt 0.265625 0.90625
vt 0.265625 0.9296875
vt 0.21875 0.9296875
vt 0.21875 0.953125
vt 0.265625 0.953125
vt 0.3125 0.953125
vt 0.265625 0.953125
vt 0.265625 0.9296875
vt 0.3125 0.9296875
vn 0 0 -1
vn 1 0 0
vn 0 0 1
vn -1 0 0
vn 0 1 0
vn 0 -1 0
usemtl m_db01bca4-9894-1090-c0ce-2451c7257be7
f 108/316/79 111/315/79 109/314/79 106/313/79
f 107/320/80 108/319/80 106/318/80 105/317/80
f 112/324/81 107/323/81 105/322/81 110/321/81
f 111/328/82 112/327/82 110/326/82 109/325/82
f 110/332/83 105/331/83 106/330/83 109/329/83
f 111/336/84 108/335/84 107/334/84 112/333/84
o cap_head
v 0.09375 1.125 0.09375
v 0.09375 1.125 -0.09375
v 0.09375 0.9375 0.09375
v 0.09375 0.9375 -0.09375
v -0.09375 1.125 0.09375
v -0.09375 1.125 -0.09375
v -0.09375 0.9375 0.09375
v -0.09375 0.9375 -0.09375
vt 0.21875 1
vt 0.171875 1
vt 0.171875 0.9765625
vt 0.21875 0.9765625
vt 0.21875 0.9765625
vt 0.21875 1
vt 0.171875 1
vt 0.171875 0.9765625
vt 0.21875 0.9765625
vt 0.21875 1
vt 0.171875 1
vt 0.171875 0.9765625
vt 0.21875 1
vt 0.171875 1
vt 0.171875 0.9765625
vt 0.21875 0.9765625
vn 1 0 0
vn -1 0 0
vn 0 0 1
vn 0 0 -1
usemtl m_3abd2b0f-f5e2-2783-9d93-0e884166a4af
f 114/337/85 113/338/85 115/339/85 116/340/85
f 119/341/86 117/342/86 118/343/86 120/344/86
f 115/345/87 113/346/87 117/347/87 119/348/87
f 118/349/88 114/350/88 116/351/88 120/352/88
o orb_head
v -0.8232233096943701 1.0823067032109734 0.10139526958278387
v -0.8232232997123566 1.2257007989057944 -0.103392750867301
v -0.9999999987566498 0.9374997041865649 3.2277712188428717e-7
v -0.9999999887746364 1.080893799881386 -0.20478769767296295
v -1.0000000012433503 1.370507795813435 -0.0019978227771218706
v -1.0000000112253635 1.227113700118614 0.202790197672963
v -1.17677669030563 1.2257007967890265 -0.10339276958278386
v -1.1767767002876433 1.0823067010942056 0.10139525086730099
vt 0.234375 0.828125
vt 0.296875 0.828125
vt 0.296875 0.796875
vt 0.234375 0.796875
vt 0.171875 0.828125
vt 0.234375 0.828125
vt 0.234375 0.796875
vt 0.171875 0.796875
vt 0.359375 0.828125
vt 0.421875 0.828125
vt 0.421875 0.796875
vt 0.359375 0.796875
vt 0.296875 0.828125
vt 0.359375 0.828125
vt 0.359375 0.796875
vt 0.296875 0.796875
vt 0.296875 0.828125
vt 0.234375 0.828125
vt 0.234375 0.859375
vt 0.296875 0.859375
vt 0.359375 0.859375
vt 0.296875 0.859375
vt 0.296875 0.828125
vt 0.359375 0.828125
vn 3.9928053419124865e-8 0.5735763827792845 -0.8191520818003395
vn 0.7071068061239743 -0.5792279876305625 -0.40557971236071655
vn -3.9928053419124865e-8 -0.5735763827792845 0.8191520818003395
vn -0.7071068061239743 0.5792279876305625 0.40557971236071655
vn 0.707106756249119 0.5792279960976341 0.40557978722264804
vn -0.707106756249119 -0.5792279960976341 -0.40557978722264804
usemtl m_db01bca4-9894-1090-c0ce-2451c7257be7
f 124/356/89 127/355/89 125/354/89 122/353/89
f 123/360/90 124/359/90 122/358/90 121/357/90
f 128/364/91 123/363/91 121/362/91 126/361/91
f 127/368/92 128/367/92 126/366/92 125/365/92
f 126/372/93 121/371/93 122/370/93 125/369/93
f 127/376/94 124/375/94 123/374/94 128/373/94
o orb_head
v -0.8011262234061662 1.0733445723623452 0.11419452203063185
v -0.8011262121764013 1.2346629300190188 -0.11619200097571364
v -0.999999998601231 0.9104366984598855 0.00012520687426213024
v -0.999999987371466 1.0717550561165592 -0.23026131613208334
v -1.000000001398769 1.3975708015401145 -0.0021227068742621304
v -1.000000012628534 1.2362524438834408 0.22826381613208335
v -1.1988737765938338 1.2346629276376548 -0.11619202203063186
v -1.1988737878235987 1.0733445699809812 0.11419450097571363
vt 0.234375 0.765625
vt 0.296875 0.765625
vt 0.296875 0.734375
vt 0.234375 0.734375
vt 0.171875 0.765625
vt 0.234375 0.765625
vt 0.234375 0.734375
vt 0.171875 0.734375
vt 0.359375 0.765625
vt 0.421875 0.765625
vt 0.421875 0.734375
vt 0.359375 0.734375
vt 0.296875 0.765625
vt 0.359375 0.765625
vt 0.359375 0.734375
vt 0.296875 0.734375
vt 0.296875 0.765625
vt 0.234375 0.765625
vt 0.234375 0.796875
vt 0.296875 0.796875
vt 0.359375 0.796875
vt 0.296875 0.796875
vt 0.296875 0.765625
vt 0.359375 0.765625
vn 3.9928053419124865e-8 0.5735763827792845 -0.8191520818003395
vn 0.7071068061239743 -0.5792279876305625 -0.40557971236071655
vn -3.9928053419124865e-8 -0.5735763827792845 0.8191520818003395
vn -0.7071068061239743 0.5792279876305625 0.40557971236071655
vn 0.707106756249119 0.5792279960976341 0.40557978722264804
vn -0.707106756249119 -0.5792279960976341 -0.40557978722264804
usemtl m_db01bca4-9894-1090-c0ce-2451c7257be7
f 132/380/95 135/379/95 133/378/95 130/377/95
f 131/384/96 132/383/96 130/382/96 129/381/96
f 136/388/97 131/387/97 129/386/97 134/385/97
f 135/392/98 136/391/98 134/390/98 133/389/98
f 134/396/99 129/395/99 130/394/99 133/393/99
f 135/400/100 132/399/100 131/398/100 136/397/100
o orb_head
v -0.90625 1.25 0.09375
v -0.90625 1.25 -0.09375
v -0.90625 1 0.09375
v -0.90625 1 -0.09375
v -1.09375 1.25 -0.09375
v -1.09375 1.25 0.09375
v -1.09375 1 -0.09375
v -1.09375 1 0.09375
vt 0.46875 0.828125
vt 0.515625 0.828125
vt 0.515625 0.796875
vt 0.46875 0.796875
vt 0.421875 0.828125
vt 0.46875 0.828125
vt 0.46875 0.796875
vt 0.421875 0.796875
vt 0.5625 0.828125
vt 0.609375 0.828125
vt 0.609375 0.796875
vt 0.5625 0.796875
vt 0.515625 0.828125
vt 0.5625 0.828125
vt 0.5625 0.796875
vt 0.515625 0.796875
vt 0.515625 0.828125
vt 0.46875 0.828125
vt 0.46875 0.8515625
vt 0.515625 0.8515625
vt 0.5625 0.8515625
vt 0.515625 0.8515625
vt 0.515625 0.828125
vt 0.5625 0.828125
vn 0 0 -1
vn 1 0 0
vn 0 0 1
vn -1 0 0
vn 0 1 0
vn 0 -1 0
usemtl m_db01bca4-9894-1090-c0ce-2451c7257be7
f 140/404/101 143/403/101 141/402/101 138/401/101
f 139/408/102 140/407/102 138/406/102 137/405/102
f 144/412/103 139/411/103 137/410/103 142/409/103
f 143/416/104 144/415/104 142/414/104 141/413/104
f 142/420/105 137/419/105 138/418/105 141/417/105
f 143/424/106 140/423/106 139/422/106 144/421/106
o orb_head
v -0.890625 1.265625 0.109375
v -0.890625 1.265625 -0.109375
v -0.890625 0.984375 0.109375
v -0.890625 0.984375 -0.109375
v -1.109375 1.265625 -0.109375
v -1.109375 1.265625 0.109375
v -1.109375 0.984375 -0.109375
v -1.109375 0.984375 0.109375
vt 0.46875 0.7734375
vt 0.515625 0.7734375
vt 0.515625 0.7421875
vt 0.46875 0.7421875
vt 0.421875 0.7734375
vt 0.46875 0.7734375
vt 0.46875 0.7421875
vt 0.421875 0.7421875
vt 0.5625 0.7734375
vt 0.609375 0.7734375
vt 0.609375 0.7421875
vt 0.5625 0.7421875
vt 0.515625 0.7734375
vt 0.5625 0.7734375
vt 0.5625 0.7421875
vt 0.515625 0.7421875
vt 0.515625 0.7734375
vt 0.46875 0.7734375
vt 0.46875 0.796875
vt 0.515625 0.796875
vt 0.5625 0.796875
vt 0.515625 0.796875
vt 0.515625 0.7734375
vt 0.5625 0.7734375
vn 0 0 -1
vn 1 0 0
vn 0 0 1
vn -1 0 0
vn 0 1 0
vn 0 -1 0
usemtl m_db01bca4-9894-1090-c0ce-2451c7257be7
f 148/428/107 151/427/107 149/426/107 146/425/107
f 147/432/108 148/431/108 146/430/108 145/429/108
f 152/436/109 147/435/109 145/434/109 150/433/109
f 151/440/110 152/439/110 150/438/110 149/437/110
f 150/444/111 145/443/111 146/442/111 149/441/111
f 151/448/112 148/447/112 147/446/112 152/445/112
o orb_head
v -0.911611654847185 1.3346596016054866 0.049198884791391936
v -0.9116116498561784 1.4063566494528972 -0.0531951254336505
v -0.9999999993783248 1.2622561020932823 -0.0014985886114390577
v -0.9999999943873182 1.333953149940693 -0.1038925988364815
v -1.0000000006216752 1.4787601479067176 -0.002497661388560942
v -1.0000000056126819 1.407063100059307 0.09989634883648149
v -1.088388345152815 1.4063566483945134 -0.05319513479139194
v -1.0883883501438216 1.3346596005471028 0.049198875433650494
vt 0.640625 0.765625
vt 0.671875 0.765625
vt 0.671875 0.75
vt 0.640625 0.75
vt 0.609375 0.765625
vt 0.640625 0.765625
vt 0.640625 0.75
vt 0.609375 0.75
vt 0.703125 0.765625
vt 0.734375 0.765625
vt 0.734375 0.75
vt 0.703125 0.75
vt 0.671875 0.765625
vt 0.703125 0.765625
vt 0.703125 0.75
vt 0.671875 0.75
vt 0.671875 0.765625
vt 0.640625 0.765625
vt 0.640625 0.78125
vt 0.671875 0.78125
vt 0.703125 0.78125
vt 0.671875 0.78125
vt 0.671875 0.765625
vt 0.703125 0.765625
vn 3.9928053419124865e-8 0.5735763827792845 -0.8191520818003395
vn 0.7071068061239743 -0.5792279876305625 -0.40557971236071655
vn -3.9928053419124865e-8 -0.5735763827792845 0.8191520818003395
vn -0.7071068061239743 0.5792279876305625 0.40557971236071655
vn 0.707106756249119 0.5792279960976341 0.40557978722264804
vn -0.707106756249119 -0.5792279960976341 -0.40557978722264804
usemtl m_db01bca4-9894-1090-c0ce-2451c7257be7
f 156/452/113 159/451/113 157/450/113 154/449/113
f 155/456/114 156/455/114 154/454/114 153/453/114
f 160/460/115 155/459/115 153/458/115 158/457/115
f 159/464/116 160/463/116 158/462/116 157/461/116
f 158/468/117 153/467/117 154/466/117 157/465/117
f 159/472/118 156/471/118 155/470/118 160/469/118
o orb_head
v -0.8895145685589813 1.3256974707568583 0.06199813723923993
v -0.889514562320223 1.4153187805661216 -0.06599437554206312
v -0.999999999222906 1.235193096366603 -0.0013737045142988256
v -0.9999999929841478 1.3248144061758662 -0.12936621729560185
v -1.000000000777094 1.505823153633397 -0.002622545485701174
v -1.0000000070158523 1.4162018438241337 0.12536996729560188
v -1.1104854314410186 1.4153187792431416 -0.06599438723923993
v -1.110485437679777 1.3256974694338783 0.06199812554206312
vt 0.640625 0.734375
vt 0.671875 0.734375
vt 0.671875 0.71875
vt 0.640625 0.71875
vt 0.609375 0.734375
vt 0.640625 0.734375
vt 0.640625 0.71875
vt 0.609375 0.71875
vt 0.703125 0.734375
vt 0.734375 0.734375
vt 0.734375 0.71875
vt 0.703125 0.71875
vt 0.671875 0.734375
vt 0.703125 0.734375
vt 0.703125 0.71875
vt 0.671875 0.71875
vt 0.671875 0.734375
vt 0.640625 0.734375
vt 0.640625 0.75
vt 0.671875 0.75
vt 0.703125 0.75
vt 0.671875 0.75
vt 0.671875 0.734375
vt 0.703125 0.734375
vn 3.9928053419124865e-8 0.5735763827792845 -0.8191520818003395
vn 0.7071068061239743 -0.5792279876305625 -0.40557971236071655
vn -3.9928053419124865e-8 -0.5735763827792845 0.8191520818003395
vn -0.7071068061239743 0.5792279876305625 0.40557971236071655
vn 0.707106756249119 0.5792279960976341 0.40557978722264804
vn -0.707106756249119 -0.5792279960976341 -0.40557978722264804
usemtl m_db01bca4-9894-1090-c0ce-2451c7257be7
f 164/476/119 167/475/119 165/474/119 162/473/119
f 163/480/120 164/479/120 162/478/120 161/477/120
f 168/484/121 163/483/121 161/482/121 166/481/121
f 167/488/122 168/487/122 166/486/122 165/485/122
f 166/492/123 161/491/123 162/490/123 165/489/123
f 167/496/124 164/495/124 163/494/124 168/493/124
o beacon_head
v -1.7790291371179625 1.3685086915137168 0.12674377447847987
v -1.779029124640446 1.547751311132243 -0.12924125108412624
v -1.999999998445812 1.187499942733206 9.09714023484328e-8
v -1.9999999859682955 1.3667425623517324 -0.25598493459120375
v -2.000000001554188 1.7287600572667938 -0.0024975909714023484
v -2.0000000140317047 1.5495174376482674 0.2534874345912037
v -2.2209708628820373 1.547751308486283 -0.12924127447847986
v -2.220970875359554 1.368508688867757 0.12674375108412625
vt 0.25 0.6328125
vt 0.328125 0.6328125
vt 0.328125 0.59375
vt 0.25 0.59375
vt 0.171875 0.6328125
vt 0.25 0.6328125
vt 0.25 0.59375
vt 0.171875 0.59375
vt 0.40625 0.6328125
vt 0.484375 0.6328125
vt 0.484375 0.59375
vt 0.40625 0.59375
vt 0.328125 0.6328125
vt 0.40625 0.6328125
vt 0.40625 0.59375
vt 0.328125 0.59375
vt 0.328125 0.6328125
vt 0.25 0.6328125
vt 0.25 0.671875
vt 0.328125 0.671875
vt 0.40625 0.671875
vt 0.328125 0.671875
vt 0.328125 0.6328125
vt 0.40625 0.6328125
vn 3.9928053419124865e-8 0.5735763827792845 -0.8191520818003395
vn 0.7071068061239743 -0.5792279876305625 -0.40557971236071655
vn -3.9928053419124865e-8 -0.5735763827792845 0.8191520818003395
vn -0.7071068061239743 0.5792279876305625 0.40557971236071655
vn 0.707106756249119 0.5792279960976341 0.40557978722264804
vn -0.707106756249119 -0.5792279960976341 -0.40557978722264804
usemtl m_db01bca4-9894-1090-c0ce-2451c7257be7
f 172/500/125 175/499/125 173/498/125 170/497/125
f 171/504/126 172/503/126 170/502/126 169/501/126
f 176/508/127 171/507/127 169/506/127 174/505/127
f 175/512/128 176/511/128 174/510/128 173/509/128
f 174/516/129 169/515/129 170/514/129 173/513/129
f 175/520/130 172/519/130 171/518/130 176/517/130
o beacon_head
v -1.7569320508297588 1.3595465606650883 0.13954302692632783
v -1.7569320371044905 1.5567134422454674 -0.1420405011925389
v -1.9999999982903935 1.1604369370065266 0.00012497506854260826
v -1.999999984565125 1.3576038185869057 -0.28145855305032413
v -2.0000000017096067 1.7558230629934732 -0.002622475068542608
v -2.000000015434875 1.5586561814130941 0.2789610530503241
v -2.243067949170241 1.5567134393349116 -0.14204052692632782
v -2.2430679628955095 1.3595465577545325 0.1395430011925389
vt 0.25 0.5546875
vt 0.328125 0.5546875
vt 0.328125 0.515625
vt 0.25 0.515625
vt 0.171875 0.5546875
vt 0.25 0.5546875
vt 0.25 0.515625
vt 0.171875 0.515625
vt 0.40625 0.5546875
vt 0.484375 0.5546875
vt 0.484375 0.515625
vt 0.40625 0.515625
vt 0.328125 0.5546875
vt 0.40625 0.5546875
vt 0.40625 0.515625
vt 0.328125 0.515625
vt 0.328125 0.5546875
vt 0.25 0.5546875
vt 0.25 0.59375
vt 0.328125 0.59375
vt 0.40625 0.59375
vt 0.328125 0.59375
vt 0.328125 0.5546875
vt 0.40625 0.5546875
vn 3.9928053419124865e-8 0.5735763827792845 -0.8191520818003395
vn 0.7071068061239743 -0.5792279876305625 -0.40557971236071655
vn -3.9928053419124865e-8 -0.5735763827792845 0.8191520818003395
vn -0.7071068061239743 0.5792279876305625 0.40557971236071655
vn 0.707106756249119 0.5792279960976341 0.40557978722264804
vn -0.707106756249119 -0.5792279960976341 -0.40557978722264804
usemtl m_db01bca4-9894-1090-c0ce-2451c7257be7
f 180/524/131 183/523/131 181/522/131 178/521/131
f 179/528/132 180/527/132 178/526/132 177/525/132
f 184/532/133 179/531/133 177/530/133 182/529/133
f 183/536/134 184/535/134 182/534/134 181/533/134
f 182/540/135 177/539/135 178/538/135 181/537/135
f 183/544/136 180/543/136 179/542/136 184/541/136
o beacon_head
v -1.875 1.625 0.125
v -1.875 1.625 -0.125
v -1.875 1.125 0.125
v -1.875 1.125 -0.125
v -2.125 1.625 -0.125
v -2.125 1.625 0.125
v -2.125 1.125 -0.125
v -2.125 1.125 0.125
vt 0.546875 0.640625
vt 0.609375 0.640625
vt 0.609375 0.578125
vt 0.546875 0.578125
vt 0.484375 0.640625
vt 0.546875 0.640625
vt 0.546875 0.578125
vt 0.484375 0.578125
vt 0.671875 0.640625
vt 0.734375 0.640625
vt 0.734375 0.578125
vt 0.671875 0.578125
vt 0.609375 0.640625
vt 0.671875 0.640625
vt 0.671875 0.578125
vt 0.609375 0.578125
vt 0.609375 0.640625
vt 0.546875 0.640625
vt 0.546875 0.671875
vt 0.609375 0.671875
vt 0.671875 0.671875
vt 0.609375 0.671875
vt 0.609375 0.640625
vt 0.671875 0.640625
vn 0 0 -1
vn 1 0 0
vn 0 0 1
vn -1 0 0
vn 0 1 0
vn 0 -1 0
usemtl m_db01bca4-9894-1090-c0ce-2451c7257be7
f 188/548/137 191/547/137 189/546/137 186/545/137
f 187/552/138 188/551/138 186/550/138 185/549/138
f 192/556/139 187/555/139 185/554/139 190/553/139
f 191/560/140 192/559/140 190/558/140 189/557/140
f 190/564/141 185/563/141 186/562/141 189/561/141
f 191/568/142 188/567/142 187/566/142 192/565/142
o beacon_head
v -1.859375 1.640625 0.140625
v -1.859375 1.640625 -0.140625
v -1.859375 1.109375 0.140625
v -1.859375 1.109375 -0.140625
v -2.140625 1.640625 -0.140625
v -2.140625 1.640625 0.140625
v -2.140625 1.109375 -0.140625
v -2.140625 1.109375 0.140625
vt 0.546875 0.546875
vt 0.609375 0.546875
vt 0.609375 0.484375
vt 0.546875 0.484375
vt 0.484375 0.546875
vt 0.546875 0.546875
vt 0.546875 0.484375
vt 0.484375 0.484375
vt 0.671875 0.546875
vt 0.734375 0.546875
vt 0.734375 0.484375
vt 0.671875 0.484375
vt 0.609375 0.546875
vt 0.671875 0.546875
vt 0.671875 0.484375
vt 0.609375 0.484375
vt 0.609375 0.546875
vt 0.546875 0.546875
vt 0.546875 0.578125
vt 0.609375 0.578125
vt 0.671875 0.578125
vt 0.609375 0.578125
vt 0.609375 0.546875
vt 0.671875 0.546875
vn 0 0 -1
vn 1 0 0
vn 0 0 1
vn -1 0 0
vn 0 1 0
vn 0 -1 0
usemtl m_db01bca4-9894-1090-c0ce-2451c7257be7
f 196/572/143 199/571/143 197/570/143 194/569/143
f 195/576/144 196/575/144 194/574/144 193/573/144
f 200/580/145 195/579/145 193/578/145 198/577/145
f 199/584/146 200/583/146 198/582/146 197/581/146
f 198/588/147 193/587/147 194/586/147 197/585/147
f 199/592/148 196/591/148 195/590/148 200/589/148
o beacon_head
v -1.8674174822707774 1.7458615899082301 0.07454738968708799
v -1.8674174747842673 1.853407161679346 -0.07904362565047565
v -1.9999999990674873 1.6372563406399236 -0.0014988204171584966
v -1.9999999915809772 1.7448019124110394 -0.15508983575472213
v -2.0000000009325127 1.9620124093600764 -0.002997429582841323
v -2.0000000084190224 1.8544668375889606 0.15059358575472231
v -2.1325825177292224 1.8534071600917699 -0.07904363968708782
v -2.1325825252157324 1.745861588320654 0.07454737565047583
vt 0.78125 0.6484375
vt 0.828125 0.6484375
vt 0.828125 0.625
vt 0.78125 0.625
vt 0.734375 0.6484375
vt 0.78125 0.6484375
vt 0.78125 0.625
vt 0.734375 0.625
vt 0.875 0.6484375
vt 0.921875 0.6484375
vt 0.921875 0.625
vt 0.875 0.625
vt 0.828125 0.6484375
vt 0.875 0.6484375
vt 0.875 0.625
vt 0.828125 0.625
vt 0.828125 0.6484375
vt 0.78125 0.6484375
vt 0.78125 0.671875
vt 0.828125 0.671875
vt 0.875 0.671875
vt 0.828125 0.671875
vt 0.828125 0.6484375
vt 0.875 0.6484375
vn 3.9928053419124865e-8 0.5735763827792845 -0.8191520818003395
vn 0.7071068061239743 -0.5792279876305625 -0.40557971236071655
vn -3.9928053419124865e-8 -0.5735763827792845 0.8191520818003395
vn -0.7071068061239743 0.5792279876305625 0.40557971236071655
vn 0.707106756249119 0.5792279960976341 0.40557978722264804
vn -0.707106756249119 -0.5792279960976341 -0.40557978722264804
usemtl m_db01bca4-9894-1090-c0ce-2451c7257be7
f 204/596/149 207/595/149 205/594/149 202/593/149
f 203/600/150 204/599/150 202/598/150 201/597/150
f 208/604/151 203/603/151 201/602/151 206/601/151
f 207/608/152 208/607/152 206/606/152 205/605/152
f 206/612/153 201/611/153 202/610/153 205/609/153
f 207/616/154 204/615/154 203/614/154 208/613/154
o beacon_head
v -1.8453203959825737 1.7368994590596019 0.08734664213493597
v -1.845320387248312 1.8623692927925701 -0.09184287575888829
v -1.9999999989120685 1.6101933349132442 -0.0013739363200182646
v -1.9999999901778067 1.7356631686462127 -0.1805634542138425
v -2.000000001087931 1.9890754150867558 -0.003122313679981569
v -2.000000009822193 1.8636055813537873 0.1760672042138427
v -2.154679604017426 1.8623692909403984 -0.09184289213493581
v -2.154679612751688 1.7368994572074299 0.08734662575888845
vt 0.78125 0.6015625
vt 0.828125 0.6015625
vt 0.828125 0.578125
vt 0.78125 0.578125
vt 0.734375 0.6015625
vt 0.78125 0.6015625
vt 0.78125 0.578125
vt 0.734375 0.578125
vt 0.875 0.6015625
vt 0.921875 0.6015625
vt 0.921875 0.578125
vt 0.875 0.578125
vt 0.828125 0.6015625
vt 0.875 0.6015625
vt 0.875 0.578125
vt 0.828125 0.578125
vt 0.828125 0.6015625
vt 0.78125 0.6015625
vt 0.78125 0.625
vt 0.828125 0.625
vt 0.875 0.625
vt 0.828125 0.625
vt 0.828125 0.6015625
vt 0.875 0.6015625
vn 3.9928053419124865e-8 0.5735763827792845 -0.8191520818003395
vn 0.7071068061239743 -0.5792279876305625 -0.40557971236071655
vn -3.9928053419124865e-8 -0.5735763827792845 0.8191520818003395
vn -0.7071068061239743 0.5792279876305625 0.40557971236071655
vn 0.707106756249119 0.5792279960976341 0.40557978722264804
vn -0.707106756249119 -0.5792279960976341 -0.40557978722264804
usemtl m_db01bca4-9894-1090-c0ce-2451c7257be7
f 212/620/155 215/619/155 213/618/155 210/617/155
f 211/624/156 212/623/156 210/622/156 209/621/156
f 216/628/157 211/627/157 209/626/157 214/625/157
f 215/632/158 216/631/158 214/630/158 213/629/158
f 214/636/159 209/635/159 210/634/159 213/633/159
f 215/640/160 212/639/160 211/638/160 216/637/160